# xmcd
#
# Track frame offsets: 
#        150
#        10669
#        25716
#        48183
#        63789
#        76542
#        92755
#        111348
#        132776
#        144645
#        162909
#        176350
#        205168
#        220311
#        236361
#        255844
#        260891
#        279081
#        297947
#        319575
#
# Disc length: 4468 seconds
#
# Revision: 0
# Processed by: cddbd v1.5.2PL0 Copyright (c) Steve Scherf et al.
# Submitted via: ExactAudioCopyFreeDBPlugin 1.0
#
DISCID=04117214
DTITLE=Jagobar - "Friday, Friday..."
DYEAR=2009
DGENRE=Vocal
TTITLE0=Friday, Friday. . .
TTITLE1=Goody, Goody. . .
TTITLE2=My Blue Heaven
TTITLE3=Ain't She Sweet
TTITLE4=I Just Telephon Upstairs
TTITLE5=All Of Me
TTITLE6=Don‘t Fence Me In
TTITLE7=Ol‘ Man River
TTITLE8=Ol‘ Time Religion
TTITLE9=The Sheik Of Araby
TTITLE10=When The Saints
TTITLE11=Lullaby Of Birdland
TTITLE12=Sweet Sue
TTITLE13=Mood Indigo
TTITLE14=Blue Skies
TTITLE15=Strolling Through The Park
TTITLE16=Doxy
TTITLE17=Give Me Five Minutes More
TTITLE18=White Cliffs Of Dover
TTITLE19=Judgement Day
EXTD=
EXTT0=
EXTT1=
EXTT2=
EXTT3=
EXTT4=
EXTT5=
EXTT6=
EXTT7=
EXTT8=
EXTT9=
EXTT10=
EXTT11=
EXTT12=
EXTT13=
EXTT14=
EXTT15=
EXTT16=
EXTT17=
EXTT18=
EXTT19=
PLAYORDER=
